<?xml version="1.0" encoding="UTF-8"?>
<svg id="Camada_1" xmlns="http://www.w3.org/2000/svg" version="1.1" viewBox="0 0 24 24">
  <!-- Generator: Adobe Illustrator 29.3.0, SVG Export Plug-In . SVG Version: 2.1.0 Build 146)  -->
  <defs>
    <style>
      .st0 {
        fill: #fff;
      }
    </style>
  </defs>
  <g id="SVGRepo_iconCarrier">
    <path class="st0" d="M20.2,16.4c-2.5,3.3-7.7,2.2-11.1,2.3,0,0-.6,0-1.2.1,0,0,.2,0,.5-.2,2.4-.8,3.5-1,4.9-1.7,2.7-1.4,5.4-4.4,6-7.6-1,3-4.2,5.6-7,6.7-2,.7-5.5,1.4-5.5,1.4,0,0,0,0-.1,0-2.4-1.2-2.5-6.4,1.9-8.1,1.9-.7,3.7-.3,5.8-.8,2.2-.5,4.8-2.2,5.8-4.3,1.2,3.5,2.6,8.9,0,12.2ZM20.2,3.1c-.3.7-.6,1.3-1.1,1.9-1.9-1.9-4.5-3-7.2-3-5.5,0-10,4.5-10,10,0,2.8,1.2,5.4,3.2,7.3l.2.2c-.3-.3-.3-.9,0-1.2.3-.3.9-.3,1.2,0,.3.3.3.9,0,1.2-.3.3-.9.3-1.2,0h.1c1.8,1.7,4.1,2.5,6.4,2.5,5.3,0,9.6-4.1,10-9.3.3-2.5-.5-5.8-1.8-9.6"/>
  </g>
</svg>